<?xml version="1.0" encoding="utf-8"?>
<!-- Generator: Adobe Illustrator 24.3.0, SVG Export Plug-In . SVG Version: 6.00 Build 0)  -->
<svg version="1.1" id="Calque_1" xmlns="http://www.w3.org/2000/svg" xmlns:xlink="http://www.w3.org/1999/xlink" x="0px" y="0px"
	 viewBox="0 0 210 297" style="enable-background:new 0 0 210 297;" xml:space="preserve">
<style type="text/css">
	.st0{fill:#EA4E00;}
	.st1{fill:#D82E2E;}
	.st2{fill:#FFFFFF;}
	.st3{fill:#307BD6;}
	.st4{fill:none;stroke:#000000;stroke-width:8;stroke-miterlimit:10;}
	.st5{fill:none;stroke:#000000;stroke-miterlimit:10;}
</style>
<circle class="st0" cx="374.7" cy="109.8" r="41.4"/>
<g>
	<g>
		<g id="XMLID_1_">
			<g>
				<path d="M416.6,107.7c0.6,11.5-2.9,21.6-10.6,30.1c-8.3,9.2-18.8,14-29.5,14.1c-12.7,0-22.1-3.7-30.1-10.9
					c-8.5-7.7-13-17.4-13.7-28.8c-0.7-11.8,3.2-22.2,11.2-30.8c8.5-9.2,19.3-13.7,31.8-13.4c10.4,0.2,19.5,4,27.1,11
					C411.4,86.6,416,96.2,416.6,107.7z M406.7,129.2c5-8.8,6.5-18,4.4-28c-3.8,6.6-9.3,11.3-15.3,15.6c0.6,2.3,1.2,4.7,1.8,7.1
					C401.1,122.8,404.4,124.1,406.7,129.2z M410,98.6c0.1-0.3,0.1-0.6,0.1-0.9c-1.1-3-2.4-5.8-4.2-8.4c-1.5-2.2-3.2-4.3-5-6.2
					c-1-1.1-2.2-2-3.3-3c-0.6-0.5-1.4-0.9-2-1.3c0.7,1.7,1.4,3.4,2,5.2c0.5,1.5,1,3,1.1,4.5c0.2,1.8,0.2,3.6,0,5.5
					c-0.2,2.6-1.1,4.9-2.7,7c-1.3,1.8-2.8,3.1-4.5,4.3c1.2,3.1,2.4,6.3,3.6,9.5c0.2-0.2,0.4-0.2,0.6-0.3c1.8-1.4,3.6-2.8,5.4-4.4
					c1.9-1.7,3.7-3.5,5.4-5.5C408,102.8,409.3,100.8,410,98.6z M405,131.7c0.3-0.3,0.3-0.6,0.2-1c-0.6-1.4-1.2-2.7-2.2-3.8
					c-1.1-1.2-3.1-1.9-4.7-1.2c-0.3,0.2-0.3,0.3-0.3,0.6c0.2,2.2,0.6,4.4,0.6,6.7c0.1,1.9-0.1,3.8-0.2,5.6c0,0,0.1,0,0.2-0.1
					c0.7-0.6,1.5-1.2,2.2-1.9C402.2,135,403.6,133.3,405,131.7z M393.6,100.9c2.6-3,3.6-6.4,3.3-10.3c-0.1-2.1-0.7-4-1.3-5.9
					c-0.8-2.7-2.2-5.2-3.6-7.7c-0.1-0.1-0.2-0.2-0.3-0.3c-2.2-1.3-4.5-2.1-6.9-2.8c-1.4-0.4-3-0.5-4.5-0.9c-2.1-0.5-4.1-0.5-6.2-0.6
					c-1.1-0.1-2.2,0.1-3.3,0.2c-1.3,0.2-2.7,0.4-4.2,0.7c0.7,0.3,1.2,0.6,1.7,0.9c3,1.9,5.6,4.2,8,6.9c0.9,1,1.9,2.1,2.7,3.1
					c2.1,2.8,4.2,5.6,5.9,8.7c1.9,3.4,3.8,6.9,5.8,10.5C391.8,102.7,392.8,101.9,393.6,100.9z M395.9,140.3c0.6-1.8,0.7-3.8,0.7-5.7
					s-0.2-3.9-0.3-5.9c-0.1-0.5-0.2-1-0.3-1.7c-0.7,0.6-1.4,1-1.9,1.6c-1.4,1.4-2.7,2.8-4,4.4c-1.5,1.8-2.8,3.7-4.1,5.6
					c-1,1.4-1.8,2.8-2.7,4.2c-0.9,1.3-1.7,2.6-2.6,4c1.3-0.3,2.4-0.5,3.6-0.9c1.4-0.4,2.8-0.7,4.2-1.3c2.1-1,4.1-2.1,6.2-3.2
					C395.2,141.1,395.7,140.7,395.9,140.3z M394.3,125.9c1.1-0.7,1.5-1.5,1.1-2.9c-0.6-1.5-0.8-3.2-1.2-5c-1.1,0.7-2.2,1.4-3.2,1.9
					c-2.8,1.7-5.7,3.4-8.7,4.8c-3.2,1.5-6.5,2.8-9.7,4.2c-2.2,0.9-4.6,1.7-6.9,2.3c-1.6,0.5-3.2,0.7-4.8,1.2c-2.4,0.7-5,1-7.5,1.1
					c-2.3,0.2-4.7,0.2-7.1-0.3c-0.2-0.1-0.5-0.1-0.8-0.2c0.2,0.4,0.3,0.7,0.6,0.9c1.7,1.7,3.3,3.4,5.1,4.9c1.3,1.1,2.8,2,4.3,2.9
					c1.6,1,3.2,1.9,5,2.6c2.6,1,5.3,1.9,8.1,2.2c1.4,0.2,2.7,0.3,4,0.4c1.2,0.1,2.4-0.1,3.5,0.1c0.9,0.1,1.5-0.3,2.2-0.9
					c1.7-1.7,2.7-3.8,4-5.7c1-1.5,1.9-3,2.9-4.5c1-1.4,2-2.7,3-4c1-1.3,2-2.6,3.1-3.7C392.3,127.4,393.3,126.6,394.3,125.9z
					 M393.1,116.3c0.2-0.1,0.3-0.4,0.2-0.6c-0.2-0.9-0.6-1.8-0.9-2.6c-0.3-0.8-0.6-1.6-0.9-2.4c-0.6-1.5-1.1-2.9-1.7-4.4
					c-1.3,0.5-2.4,0.9-3.5,1.4c-2.1,0.8-4.2,1.3-6.4,1.4c-2.4,0.1-4.8,0.1-7.2-0.6c-1.8-0.5-3.7-0.9-5.5-1.5c-2.2-0.9-4.3-1.9-6.4-3
					c-2.2-1.1-4.3-2.3-6.4-3.6c-2.1-1.2-4.1-2.4-6.2-3.6c-0.9-0.5-1.7-1-2.6-1.3c-1.3-0.3-2.6-0.5-3.8,0c-1,0.3-2,0.7-2.4,1.8
					c-0.2,0.6-0.4,1.3-0.6,1.9c-0.9,2.8-1.3,5.7-1.5,8.6c-0.2,3.9,0.2,7.7,1.2,11.5c1,3.6,2.4,7,4.4,10.2c0.7,1.1,1.8,1.4,2.8,1.7
					c1,0.2,1.9,0.4,3,0.4c1.7,0.1,3.2,0.2,4.9,0c1.8-0.2,3.6-0.5,5.4-0.8c1.4-0.2,2.7-0.5,4-0.8c2.4-0.7,4.9-1.5,7.3-2.3
					c3.5-1.1,7-2.6,10.3-4.3c2.8-1.4,5.6-3,8.4-4.6C390.5,118,391.8,117.2,393.1,116.3z M389,104.5c-0.6-1.3-1.1-2.6-1.7-3.7
					c-1.7-3-3.4-6-5.2-9c-3-4.8-6.5-9.2-10.7-13c-1.8-1.6-3.7-2.9-5.9-3.9c-1-0.4-2-0.9-3.1-0.5c-1.1,0.4-2.2,0.9-3.3,1.3
					c-2.3,1.1-4.6,2.4-6.6,3.9c-1.9,1.5-3.9,3-5.4,4.9c-1.4,1.7-2.7,3.4-3.9,5.1c-0.9,1.2-1.5,2.6-2.3,4c0.4-0.1,0.6-0.1,0.9-0.2
					c0.7-0.1,1.4-0.3,2-0.3c1.4,0.1,2.8,0.4,4,1.1c2.3,1.3,4.5,2.6,6.7,3.8c2.7,1.5,5.3,3.1,8,4.4c2.7,1.4,5.5,2.6,8.4,3.4
					c1.8,0.5,3.5,0.9,5.3,1c3.4,0.2,6.9,0.2,10.1-1.3C387.3,105.2,388.1,104.9,389,104.5z"/>
			</g>
		</g>
	</g>
</g>
<g>
	<g id="XMLID_1_">
		<g>
			<path class="st1" d="M161.4,53.1v190.7c0,2.9-1,5.5-2.6,7.7l0,0l-8.7-16.6c0,0,0,0,0,0L59.5,61.3c-0.7-4.1-2.3-20.8,21.8-20.8
				h0.1h67.3C155.7,40.5,161.4,46.2,161.4,53.1z M157.8,247.3v-23.8c-4.2,6.8-9.9,0-9.9,0L157.8,247.3z"/>
			<path class="st2" d="M158.8,251.5L158.8,251.5c-2.3,3-5.9,5-10,5h-17.8c24.1-1.2,19.4-20.8,19.2-21.6L158.8,251.5z M155.8,249.4
				c0-2.1-1.7-3.7-3.7-3.7c-2.1,0-3.7,1.7-3.7,3.7c0,2.1,1.7,3.7,3.7,3.7C154.1,253.2,155.8,251.5,155.8,249.4z"/>
			<path d="M157.8,223.4v23.8l-9.9-23.8C147.9,223.4,153.6,230.3,157.8,223.4z"/>
			<path class="st2" d="M152,245.7c2.1,0,3.7,1.7,3.7,3.7c0,2.1-1.7,3.7-3.7,3.7c-2.1,0-3.7-1.7-3.7-3.7
				C148.3,247.4,150,245.7,152,245.7z"/>
			<path class="st3" d="M59.5,61.3l90.6,173.6c0,0,0,0,0,0c0.2,0.9,5,20.4-19.2,21.6H61.3c-7,0-12.6-5.7-12.6-12.6V53.1
				c0-2.9,1-5.5,2.6-7.7L59.5,61.3z M61.6,72.9l-9.9-23.8v23.8C55.9,66.1,61.6,72.9,61.6,72.9z"/>
			<path class="st2" d="M61.3,40.5h20c-24.1,0-22.5,16.7-21.8,20.8l-8.3-15.8C53.5,42.5,57.2,40.5,61.3,40.5z M60,46.3
				c0-1.2-1-2.3-2.3-2.3s-2.3,1-2.3,2.3s1,2.3,2.3,2.3S60,47.5,60,46.3z"/>
			<path d="M51.7,49.1l9.9,23.8c0,0-5.7-6.8-9.9,0V49.1z"/>
			<path class="st2" d="M57.8,44c1.2,0,2.3,1,2.3,2.3s-1,2.3-2.3,2.3s-2.3-1-2.3-2.3S56.5,44,57.8,44z"/>
		</g>
		<g>
			<path class="st4" d="M81.4,40.5h67.3c7,0,12.6,5.7,12.6,12.6v190.7c0,2.9-1,5.5-2.6,7.7c-2.3,3-5.9,5-10,5h-17.8H61.3
				c-7,0-12.6-5.7-12.6-12.6V53.1c0-2.9,1-5.5,2.6-7.7c2.3-3,5.9-5,10-5h20"/>
			<line class="st4" x1="150.1" y1="234.9" x2="158.8" y2="251.5"/>
			<polyline class="st4" points="50.5,44 51.2,45.5 59.5,61.3 150.1,234.9 			"/>
			<path class="st4" d="M150.1,234.9C150.1,234.9,150.1,234.9,150.1,234.9c0.2,0.9,5,20.4-19.2,21.6c-0.8,0-1.7,0.1-2.5,0.1"/>
			<path class="st4" d="M81.4,40.5h-0.1c-24.1,0-22.5,16.7-21.8,20.8c0.1,0.6,0.2,0.9,0.2,0.9"/>
			<path class="st4" d="M60,46.3c0,1.2-1,2.3-2.3,2.3s-2.3-1-2.3-2.3s1-2.3,2.3-2.3S60,45,60,46.3z"/>
			<path class="st4" d="M155.8,249.4c0,2.1-1.7,3.7-3.7,3.7c-2.1,0-3.7-1.7-3.7-3.7c0-2.1,1.7-3.7,3.7-3.7
				C154.1,245.7,155.8,247.4,155.8,249.4z"/>
			<path class="st5" d="M61.6,72.9c0,0-5.7-6.8-9.9,0V49.1L61.6,72.9z"/>
			<path class="st5" d="M147.9,223.4c0,0,5.7,6.8,9.9,0v23.8L147.9,223.4z"/>
		</g>
	</g>
</g>
<path class="st5" d="M150.2,270.9H60.3c-14.3,0-25.8-11.6-25.8-25.8V51.6c0-14.3,11.6-25.8,25.8-25.8h89.9
	c14.3,0,25.8,11.6,25.8,25.8v193.5C176.1,259.4,164.5,270.9,150.2,270.9z"/>
</svg>
